<svg xmlns:xlink="http://www.w3.org/1999/xlink" class="svg-inline--fa jwi-jworg-logo--fill fa-w-16" aria-hidden="true" focusable="false" data-prefix="jwf-jw-icons-external" data-icon="jworg-logo--fill" role="img" xmlns="http://www.w3.org/2000/svg" viewBox="0 0 24 24" data-fa-i2svg="" width="24"  height="24" ><path fill="#555555" d="M8.54 15.42a1.81 1.81 0 00-.57-.5 1.53 1.53 0 00-.74-.18 1.56 1.56 0 00-.74.18 1.77 1.77 0 00-.57.49 2.18 2.18 0 00-.36.75 3.37 3.37 0 00-.13.93 3.67 3.67 0 00.13 1 2.45 2.45 0 00.37.76 1.81 1.81 0 00.57.5 1.65 1.65 0 00.74.18 1.48 1.48 0 00.76-.21 1.57 1.57 0 00.56-.5 2.19 2.19 0 00.37-.75 3.34 3.34 0 00.14-1 3.14 3.14 0 00-.13-.94 2.68 2.68 0 00-.4-.71zM13.8 16a1 1 0 00-.38-.84 1.44 1.44 0 00-.95-.3h-1.2v2.23h1.14a1.6 1.6 0 001-.28 1 1 0 00.39-.81z M0 0v24h24V0zm4.38 19.92h-.84v-.84h.84zm.75-9.21a4.11 4.11 0 00.78.48 2 2 0 00.83.19 1.1 1.1 0 001-.45A2 2 0 008 9.7V4h1.08v5.7a3.06 3.06 0 01-.55 1.92 2 2 0 01-1.72.72 3 3 0 01-1.22-.22 4.77 4.77 0 01-.92-.55zm4.36 7.56a2.94 2.94 0 01-.49.93 2 2 0 01-.76.6 2.31 2.31 0 01-1 .21 2.44 2.44 0 01-1-.21 2 2 0 01-.76-.6 2.58 2.58 0 01-.48-.92 4 4 0 01-.2-1.18 3.76 3.76 0 01.2-1.19 2.85 2.85 0 01.5-.91 2.18 2.18 0 01.77-.58 2.42 2.42 0 012 0A2.14 2.14 0 019 15a2.8 2.8 0 01.5.9 4.34 4.34 0 010 2.37zm4.4 1.65l-1.48-2.35h-1.14v2.35h-.6V14.3h1.84a2.59 2.59 0 01.74.1 1.66 1.66 0 01.61.3 1.36 1.36 0 01.42.5 1.54 1.54 0 01.16.73 1.72 1.72 0 01-.1.58 1.48 1.48 0 01-.28.45 1.53 1.53 0 01-.4.31 2.23 2.23 0 01-.51.19h-.1l1.57 2.44zm5.55-.58a2.26 2.26 0 01-.29.23 2.08 2.08 0 01-.39.22 3.13 3.13 0 01-.49.16 2.62 2.62 0 01-.57.06 2.51 2.51 0 01-1-.21 2.22 2.22 0 01-.8-.59 2.69 2.69 0 01-.51-.91 3.78 3.78 0 01-.18-1.2 3.6 3.6 0 01.14-1.1 3 3 0 01.53-.91 2.44 2.44 0 01.79-.6 2.31 2.31 0 011-.22 2.58 2.58 0 011 .16 3 3 0 01.74.44l-.41.43a3 3 0 00-.56-.37 1.69 1.69 0 00-.8-.18 1.51 1.51 0 00-.72.18 1.84 1.84 0 00-.59.49 2.32 2.32 0 00-.39.75 2.91 2.91 0 00-.15.95 3 3 0 00.15 1 2.26 2.26 0 00.39.74 1.91 1.91 0 00.61.49 1.71 1.71 0 001.44 0 1.78 1.78 0 00.43-.27v-1.63h-1.28v-.51h1.91zm-1.91-7.1h-.92l-1.77-6.18-1.95 6.18H12L10.11 4h1.15l1.32 6.27 1.83-6h.9l1.73 6c.09-.31 1.4-6.27 1.4-6.27h1.1z"></path></svg>