<svg xmlns:xlink="http://www.w3.org/1999/xlink" class="svg-inline--fa jwi-person-circle fa-w-16" aria-hidden="true" focusable="false" data-prefix="jwf-jw-icons-external" data-icon="person-circle" role="img" xmlns="http://www.w3.org/2000/svg" viewBox="0 0 24 24" data-fa-i2svg="" width="24"  height="24" ><path fill="#FFFFFF" d="M18 18.462a.5.5 0 01-.5-.5v-2.009l-4.293-2.298a.5.5 0 01-.264-.44v-1.093a.503.503 0 01.078-.268l1.316-2.067V7.096a3.06 3.06 0 00-2.312-1.634.11.11 0 00-.025 0 .5.5 0 01-.005-1h.032c2.079 0 3.21 2.184 3.257 2.278a.501.501 0 01.053.226v2.967a.503.503 0 01-.078.268l-1.316 2.067v.647l4.293 2.298a.5.5 0 01.264.44v2.309a.5.5 0 01-.5.5z M6 18.46a.5.5 0 01-.5-.5v-2.307a.5.5 0 01.264-.44l4.293-2.298v-.647L8.741 10.2a.503.503 0 01-.078-.268V6.966a.501.501 0 01.053-.226c.048-.094 1.185-2.256 3.29-2.278a.5.5 0 01.494.506.51.51 0 01-.505.494h-.02a3.039 3.039 0 00-2.312 1.633v2.692l1.316 2.067a.503.503 0 01.078.268v1.093a.5.5 0 01-.264.44L6.5 15.953v2.007a.5.5 0 01-.5.5z M12 23a11 11 0 1111-11 11.012 11.012 0 01-11 11zm0-21a10 10 0 1010 10A10.011 10.011 0 0012 2z"></path></svg>